<?xml version="1.0" encoding="UTF-8"?>
<svg version="1.1" viewBox="0 0 2048 2048" width="2048" height="2048" xmlns="http://www.w3.org/2000/svg">
<path transform="translate(0)" d="m0 0h2048v2048h-2048z" fill="#000100"/>
<path transform="translate(1468,563)" d="m0 0h247l1 2-7 8-12 14-13 14-9 11-7 7-9 11-11 12-9 11-14 15-9 11-9 10-7 8-12 14-11 12-7 8-9 10-9 11-10 11-9 11-8 8-9 11-14 15-9 11-7 7-9 11-11 12-7 8-10 11-9 11-11 12-7 8-9 10-7 8-13 15-9 10-7 8-12 14-12 13-7 8-12 14-11 12-9 11-14 15-9 11-14 15-9 11-7 7-9 11-12 13-7 8-12 14-7 7-9 11-11 12-9 11-14 15-9 11-14 15-9 11-10 11-7 8-3 4h-2l-2 4-11 12-12 14-13 14-5 7-5 5-13 14-7 8-9 10-8 10h-2l-2 4-13 14-9 11-12 13-7 8-11 12-1 2h-2l-2 4-11 12-7 8-9 10-7 8-8 10h-2l-2 4-11 12-7 9h-2l-1 3h-3v-277l4-6 9-10 7-8 12-14 18-20 7-8 9-10 9-11 10-11 7-8 9-10 6-8h2l2-4 10-11 7-8 8-10 5-5 12-13 7-8 12-14 12-13 2-3h2l2-4 10-11 9-11 8-8 9-11 11-12 7-8 12-14 11-12 9-11 13-14 7-8 12-14 11-12 7-8 7-9h2l2-4 12-13 9-11 15-16 7-8 12-14 9-10 7-8 9-10 7-8 12-14 7-7 9-11 11-12 7-8 9-10 9-11 6-7h2l2-4 11-12 5-7h2l2-4 12-13 9-11 13-14 9-11z" fill="#D0D0CB"/>
<path transform="translate(579,904)" d="m0 0 4 1 9 10 16 16 7 8 22 22v2l3 1 5 5v2h2l7 8 13 13v2h2l3 3v2h2l7 8 18 18 7 8 22 22 7 8 15 15v2l4 2 15 16 23 23 7 8 5 4 7 8 10 10 7 8 23 23 7 8 2 2-1 5-13 14-9 11-9 9-9 11-15 16-12 14-9 10-7 8-11 12-7 8-12 14-10 11-7 8-5 4-8-8-7-8-26-26v-2l-4-2-4-5-27-27-7-8-26-26v-2h-2v-2h-2l-7-8-36-36-2-4h-2l-6-7-27-27v-2l-3-1-7-8-29-29-7-8-28-28-7-8-6-6 1-4 8-8 6-8h2l2-4 12-13 7-8 9-11h2l2-4 9-10 1-2h2l2-4 12-13 7-8 8-10h2l2-4 3-4h2l2-4 10-11 9-11z" fill="#D0D0CB"/>
<path transform="translate(1218,668)" d="m0 0h105l-2 6-3 1-2 4-8 8-9 11-7 7-9 11-12 13-9 11-12 13-9 11-12 13-9 11-11 12-7 8-10 11-9 11-12 13-7 8-8 10h-2l-2 4-12 13-7 8-9 10-9 11h-2l-2 4-12 13-9 11-8 8-9 11-12 13-7 8-9 10-9 11-13 14-9 11-11 12-7 8-9 10-9 11-12 13-7 8-12 14-9 10-9 11-16 17-9 11h-3v-117l7-9 10-11 7-8 9-10 9-11 11-12 7-8 9-10 7-8 11-12 12-14 7-8 10-11 7-8 12-14 4-5h2l2-4 8-10h2l2-4 12-13 7-8 12-14 11-12 9-11 6-7h2l2-4 10-11 9-11 5-6h2l2-4 9-10 1-2h2l2-4 9-10 10-11 7-8 12-14 9-10 7-8z" fill="#D0D0CB"/>
<path transform="translate(860,1253)" d="m0 0h2v232l-4-2-15-15-7-8-33-33v-2h-2v-2h-2l-7-8-19-19-7-8-6-5-4-5-3-3 2-5 8-8 7-8 9-10 7-8 12-14 10-11 7-8 12-13 1-2h2l2-4 11-12 9-11z" fill="#D0D0CB"/>
</svg>
